<?xml version="1.0" encoding="utf-8" ?>
<svg baseProfile="full" height="57.5mm" version="1.1" viewBox="0,0,306.20000000000005,57.5" width="306.20000000000005mm" xmlns="http://www.w3.org/2000/svg" xmlns:ev="http://www.w3.org/2001/xml-events" xmlns:xlink="http://www.w3.org/1999/xlink"><defs /><rect fill="#FFFFFF" height="57.5" width="306.20000000000005" x="0" y="0" /><text fill="#910303" style="font-size:6px; font-family:Arial; font-weight:bold;" x="10" y="10">缕缕的微信读书</text><text fill="#910303" style="font-size:3px; font-family:Arial;" x="10" y="14.4">2024: 356 hours</text><text fill="#910303" style="font-size:2.5px; font-family:Arial" x="10" y="18.3">Jan</text><rect fill="#ed889a" height="4" rx="1" ry="1" width="4" x="10" y="19.7"><title>2024-01-01 46.7 mins</title></rect><rect fill="#e87e94" height="4" rx="1" ry="1" width="4" x="10" y="25.1"><title>2024-01-02 104.62 mins</title></rect><rect fill="#e98095" height="4" rx="1" ry="1" width="4" x="10" y="30.5"><title>2024-01-03 90.98 mins</title></rect><rect fill="#efc4ce" height="4" rx="1" ry="1" width="4" x="10" y="35.9"><title>2024-01-04 0.6 mins</title></rect><rect fill="#ea8196" height="4" rx="1" ry="1" width="4" x="10" y="41.300000000000004"><title>2024-01-05 83.78 mins</title></rect><rect fill="#b0436f" height="4" rx="1" ry="1" width="4" x="10" y="46.699999999999996"><title>2024-01-06 234.4 mins</title></rect><rect fill="#b0436f" height="4" rx="1" ry="1" width="4" x="10" y="52.1"><title>2024-01-07 343.57 mins</title></rect><rect fill="#b0436f" height="4" rx="1" ry="1" width="4" x="15.4" y="19.7"><title>2024-01-08 251.53 mins</title></rect><rect fill="#b0436f" height="4" rx="1" ry="1" width="4" x="15.4" y="25.1"><title>2024-01-09 476.05 mins</title></rect><rect fill="#b0436f" height="4" rx="1" ry="1" width="4" x="15.4" y="30.5"><title>2024-01-10 383.62 mins</title></rect><rect fill="#b0436f" height="4" rx="1" ry="1" width="4" x="15.4" y="35.9"><title>2024-01-11 176.47 mins</title></rect><rect fill="#b0436f" height="4" rx="1" ry="1" width="4" x="15.4" y="41.300000000000004"><title>2024-01-12 274.25 mins</title></rect><rect fill="#b0436f" height="4" rx="1" ry="1" width="4" x="15.4" y="46.699999999999996"><title>2024-01-13 178.78 mins</title></rect><rect fill="#b0436f" height="4" rx="1" ry="1" width="4" x="15.4" y="52.1"><title>2024-01-14 180.6 mins</title></rect><rect fill="#ea8196" height="4" rx="1" ry="1" width="4" x="20.8" y="19.7"><title>2024-01-15 84.53 mins</title></rect><rect fill="#e98095" height="4" rx="1" ry="1" width="4" x="20.8" y="25.1"><title>2024-01-16 93.93 mins</title></rect><rect fill="#eec1cb" height="4" rx="1" ry="1" width="4" x="20.8" y="30.5"><title>2024-01-17 13.0 mins</title></rect><rect fill="#ec8699" height="4" rx="1" ry="1" width="4" x="20.8" y="35.9"><title>2024-01-18 57.77 mins</title></rect><rect fill="#efc3cd" height="4" rx="1" ry="1" width="4" x="20.8" y="41.300000000000004"><title>2024-01-19 3.75 mins</title></rect><rect fill="#edbdc9" height="4" rx="1" ry="1" width="4" x="20.8" y="46.699999999999996"><title>2024-01-20 25.03 mins</title></rect><rect fill="#eec0cb" height="4" rx="1" ry="1" width="4" x="20.8" y="52.1"><title>2024-01-21 14.23 mins</title></rect><rect fill="#efc4ce" height="4" rx="1" ry="1" width="4" x="26.200000000000003" y="19.7"><title>2024-01-22 0.05 mins</title></rect><rect fill="#efc3cd" height="4" rx="1" ry="1" width="4" x="26.200000000000003" y="25.1"><title>2024-01-23 3.02 mins</title></rect><rect fill="#eec2cd" height="4" rx="1" ry="1" width="4" x="26.200000000000003" y="30.5"><title>2024-01-24 6.38 mins</title></rect><rect fill="#eec2cc" height="4" rx="1" ry="1" width="4" x="26.200000000000003" y="35.9"><title>2024-01-25 7.97 mins</title></rect><rect fill="#efc4ce" height="4" rx="1" ry="1" width="4" x="26.200000000000003" y="41.300000000000004"><title>2024-01-26 1.75 mins</title></rect><rect fill="#eec2cc" height="4" rx="1" ry="1" width="4" x="26.200000000000003" y="46.699999999999996"><title>2024-01-27 8.68 mins</title></rect><rect fill="#eec0cb" height="4" rx="1" ry="1" width="4" x="26.200000000000003" y="52.1"><title>2024-01-28 14.68 mins</title></rect><rect fill="#edbfca" height="4" rx="1" ry="1" width="4" x="31.6" y="19.7"><title>2024-01-29 20.05 mins</title></rect><rect fill="#ed889a" height="4" rx="1" ry="1" width="4" x="31.6" y="25.1"><title>2024-01-30 45.77 mins</title></rect><rect fill="#efc4ce" height="4" rx="1" ry="1" width="4" x="31.6" y="30.5"><title>2024-01-31 0.33 mins</title></rect><rect fill="#efc4ce" height="4" rx="1" ry="1" width="4" x="31.6" y="35.9"><title>2024-02-01 0.23 mins</title></rect><rect fill="#eec2cc" height="4" rx="1" ry="1" width="4" x="31.6" y="41.300000000000004"><title>2024-02-02 7.9 mins</title></rect><rect fill="#b0436f" height="4" rx="1" ry="1" width="4" x="31.6" y="46.699999999999996"><title>2024-02-03 264.83 mins</title></rect><rect fill="#b0436f" height="4" rx="1" ry="1" width="4" x="31.6" y="52.1"><title>2024-02-04 217.97 mins</title></rect><text fill="#910303" style="font-size:2.5px; font-family:Arial" x="37.0" y="18.3">Feb</text><rect fill="#efc3cd" height="4" rx="1" ry="1" width="4" x="37.0" y="19.7"><title>2024-02-05 5.33 mins</title></rect><rect fill="#eb8598" height="4" rx="1" ry="1" width="4" x="37.0" y="25.1"><title>2024-02-06 64.57 mins</title></rect><rect fill="#ea8397" height="4" rx="1" ry="1" width="4" x="37.0" y="30.5"><title>2024-02-07 76.5 mins</title></rect><rect fill="#b0436f" height="4" rx="1" ry="1" width="4" x="37.0" y="35.9"><title>2024-02-08 187.27 mins</title></rect><rect fill="#efc4ce" height="4" rx="1" ry="1" width="4" x="37.0" y="41.300000000000004"><title>2024-02-09 0.63 mins</title></rect><rect fill="#eb8497" height="4" rx="1" ry="1" width="4" x="37.0" y="46.699999999999996"><title>2024-02-10 71.23 mins</title></rect><rect fill="#b0436f" height="4" rx="1" ry="1" width="4" x="37.0" y="52.1"><title>2024-02-11 289.48 mins</title></rect><rect fill="#eec0cb" height="4" rx="1" ry="1" width="4" x="42.4" y="19.7"><title>2024-02-12 13.73 mins</title></rect><rect fill="#edbec9" height="4" rx="1" ry="1" width="4" x="42.4" y="25.1"><title>2024-02-13 23.68 mins</title></rect><rect fill="#efc4ce" height="4" rx="1" ry="1" width="4" x="42.4" y="30.5"><title>2024-02-14 0.77 mins</title></rect><rect fill="#ee8a9c" height="4" rx="1" ry="1" width="4" x="42.4" y="35.9"><title>2024-02-15 35.33 mins</title></rect><rect fill="#b0436f" height="4" rx="1" ry="1" width="4" x="42.4" y="41.300000000000004"><title>2024-02-16 177.92 mins</title></rect><rect fill="#e98095" height="4" rx="1" ry="1" width="4" x="42.4" y="46.699999999999996"><title>2024-02-17 89.9 mins</title></rect><rect fill="#edbfca" height="4" rx="1" ry="1" width="4" x="42.4" y="52.1"><title>2024-02-18 18.68 mins</title></rect><rect fill="#ecbbc7" height="4" rx="1" ry="1" width="4" x="47.8" y="19.7"><title>2024-02-19 33.25 mins</title></rect><rect fill="#efc3cd" height="4" rx="1" ry="1" width="4" x="47.8" y="25.1"><title>2024-02-20 4.9 mins</title></rect><rect fill="#efc4ce" height="4" rx="1" ry="1" width="4" x="47.8" y="30.5"><title>2024-02-21 1.18 mins</title></rect><rect fill="#edbfca" height="4" rx="1" ry="1" width="4" x="47.8" y="35.9"><title>2024-02-22 17.95 mins</title></rect><rect fill="#e98095" height="4" rx="1" ry="1" width="4" x="47.8" y="41.300000000000004"><title>2024-02-23 89.15 mins</title></rect><rect fill="#eb8598" height="4" rx="1" ry="1" width="4" x="47.8" y="46.699999999999996"><title>2024-02-24 65.07 mins</title></rect><rect fill="#b0436f" height="4" rx="1" ry="1" width="4" x="47.8" y="52.1"><title>2024-02-25 336.25 mins</title></rect><rect fill="#efc2cd" height="4" rx="1" ry="1" width="4" x="53.199999999999996" y="19.7"><title>2024-02-26 5.98 mins</title></rect><rect fill="#efc4ce" height="4" rx="1" ry="1" width="4" x="53.199999999999996" y="25.1"><title>2024-02-27 1.17 mins</title></rect><rect fill="#e97f95" height="4" rx="1" ry="1" width="4" x="53.199999999999996" y="30.5"><title>2024-02-28 94.95 mins</title></rect><rect fill="#eec0cb" height="4" rx="1" ry="1" width="4" x="53.199999999999996" y="35.9"><title>2024-02-29 14.87 mins</title></rect><rect fill="#efc3cd" height="4" rx="1" ry="1" width="4" x="53.199999999999996" y="41.300000000000004"><title>2024-03-01 4.02 mins</title></rect><rect fill="#efc3cd" height="4" rx="1" ry="1" width="4" x="53.199999999999996" y="46.699999999999996"><title>2024-03-02 4.35 mins</title></rect><rect fill="#edbcc8" height="4" rx="1" ry="1" width="4" x="53.199999999999996" y="52.1"><title>2024-03-03 28.32 mins</title></rect><text fill="#910303" style="font-size:2.5px; font-family:Arial" x="58.599999999999994" y="18.3">Mar</text><rect fill="#efc4ce" height="4" rx="1" ry="1" width="4" x="58.599999999999994" y="19.7"><title>2024-03-04 0.25 mins</title></rect><rect fill="#efc4ce" height="4" rx="1" ry="1" width="4" x="58.599999999999994" y="25.1"><title>2024-03-05 0.83 mins</title></rect><rect fill="#ed889a" height="4" rx="1" ry="1" width="4" x="58.599999999999994" y="30.5"><title>2024-03-06 47.62 mins</title></rect><rect fill="#eec2cd" height="4" rx="1" ry="1" width="4" x="58.599999999999994" y="35.9"><title>2024-03-07 6.58 mins</title></rect><rect fill="#edbdc9" height="4" rx="1" ry="1" width="4" x="58.599999999999994" y="41.300000000000004"><title>2024-03-08 24.87 mins</title></rect><rect fill="#eec2cd" height="4" rx="1" ry="1" width="4" x="58.599999999999994" y="46.699999999999996"><title>2024-03-09 7.07 mins</title></rect><rect fill="#b0436f" height="4" rx="1" ry="1" width="4" x="58.599999999999994" y="52.1"><title>2024-03-10 119.53 mins</title></rect><rect fill="#edbec9" height="4" rx="1" ry="1" width="4" x="63.99999999999999" y="19.7"><title>2024-03-11 22.28 mins</title></rect><rect fill="#ed899b" height="4" rx="1" ry="1" width="4" x="63.99999999999999" y="25.1"><title>2024-03-12 43.53 mins</title></rect><rect fill="#b0436f" height="4" rx="1" ry="1" width="4" x="63.99999999999999" y="30.5"><title>2024-03-13 177.0 mins</title></rect><rect fill="#b0436f" height="4" rx="1" ry="1" width="4" x="63.99999999999999" y="35.9"><title>2024-03-14 271.58 mins</title></rect><rect fill="#eec1cc" height="4" rx="1" ry="1" width="4" x="63.99999999999999" y="41.300000000000004"><title>2024-03-15 11.08 mins</title></rect><rect fill="#efc4ce" height="4" rx="1" ry="1" width="4" x="63.99999999999999" y="46.699999999999996"><title>2024-03-16 0.73 mins</title></rect><rect fill="#efc3cd" height="4" rx="1" ry="1" width="4" x="63.99999999999999" y="52.1"><title>2024-03-17 4.23 mins</title></rect><rect fill="#efc3cd" height="4" rx="1" ry="1" width="4" x="69.39999999999999" y="19.7"><title>2024-03-18 4.92 mins</title></rect><rect fill="#ed889a" height="4" rx="1" ry="1" width="4" x="69.39999999999999" y="25.1"><title>2024-03-19 49.82 mins</title></rect><rect fill="#efc3cd" height="4" rx="1" ry="1" width="4" x="69.39999999999999" y="30.5"><title>2024-03-20 4.17 mins</title></rect><rect fill="#eec2cc" height="4" rx="1" ry="1" width="4" x="69.39999999999999" y="35.9"><title>2024-03-21 8.98 mins</title></rect><rect fill="#efc4ce" height="4" rx="1" ry="1" width="4" x="69.39999999999999" y="41.300000000000004"><title>2024-03-22 1.0 mins</title></rect><rect fill="#e97e94" height="4" rx="1" ry="1" width="4" x="69.39999999999999" y="46.699999999999996"><title>2024-03-23 100.43 mins</title></rect><rect fill="#ec8598" height="4" rx="1" ry="1" width="4" x="69.39999999999999" y="52.1"><title>2024-03-24 61.63 mins</title></rect><rect fill="#ecbcc8" height="4" rx="1" ry="1" width="4" x="74.8" y="19.7"><title>2024-03-25 29.98 mins</title></rect><rect fill="#ea8296" height="4" rx="1" ry="1" width="4" x="74.8" y="25.1"><title>2024-03-26 83.0 mins</title></rect><rect fill="#e98095" height="4" rx="1" ry="1" width="4" x="74.8" y="30.5"><title>2024-03-27 93.47 mins</title></rect><rect fill="#b0436f" height="4" rx="1" ry="1" width="4" x="74.8" y="35.9"><title>2024-03-28 133.33 mins</title></rect><rect fill="#b0436f" height="4" rx="1" ry="1" width="4" x="74.8" y="41.300000000000004"><title>2024-03-29 178.15 mins</title></rect><rect fill="#efc3cd" height="4" rx="1" ry="1" width="4" x="74.8" y="46.699999999999996"><title>2024-03-30 4.92 mins</title></rect><rect fill="#edbfca" height="4" rx="1" ry="1" width="4" x="74.8" y="52.1"><title>2024-03-31 18.28 mins</title></rect><text fill="#910303" style="font-size:2.5px; font-family:Arial" x="80.2" y="18.3">Apr</text><rect fill="#eb8397" height="4" rx="1" ry="1" width="4" x="80.2" y="19.7"><title>2024-04-01 74.0 mins</title></rect><rect fill="#ed8a9b" height="4" rx="1" ry="1" width="4" x="80.2" y="25.1"><title>2024-04-02 36.6 mins</title></rect><rect fill="#eb8397" height="4" rx="1" ry="1" width="4" x="80.2" y="30.5"><title>2024-04-03 75.38 mins</title></rect><rect fill="#b0436f" height="4" rx="1" ry="1" width="4" x="80.2" y="35.9"><title>2024-04-04 105.73 mins</title></rect><rect fill="#b0436f" height="4" rx="1" ry="1" width="4" x="80.2" y="41.300000000000004"><title>2024-04-05 145.78 mins</title></rect><rect fill="#ed899b" height="4" rx="1" ry="1" width="4" x="80.2" y="46.699999999999996"><title>2024-04-06 42.55 mins</title></rect><rect fill="#ec8598" height="4" rx="1" ry="1" width="4" x="80.2" y="52.1"><title>2024-04-07 62.23 mins</title></rect><rect fill="#b0436f" height="4" rx="1" ry="1" width="4" x="85.60000000000001" y="19.7"><title>2024-04-08 239.1 mins</title></rect><rect fill="#eec0cb" height="4" rx="1" ry="1" width="4" x="85.60000000000001" y="25.1"><title>2024-04-09 15.18 mins</title></rect><rect fill="#e98095" height="4" rx="1" ry="1" width="4" x="85.60000000000001" y="30.5"><title>2024-04-10 89.27 mins</title></rect><rect fill="#eec0cb" height="4" rx="1" ry="1" width="4" x="85.60000000000001" y="35.9"><title>2024-04-11 15.22 mins</title></rect><rect fill="#eec2cc" height="4" rx="1" ry="1" width="4" x="85.60000000000001" y="41.300000000000004"><title>2024-04-12 7.33 mins</title></rect><rect fill="#e97f94" height="4" rx="1" ry="1" width="4" x="85.60000000000001" y="46.699999999999996"><title>2024-04-13 96.28 mins</title></rect><rect fill="#efc4ce" height="4" rx="1" ry="1" width="4" x="85.60000000000001" y="52.1"><title>2024-04-14 0.03 mins</title></rect><rect fill="#eec2cc" height="4" rx="1" ry="1" width="4" x="91.00000000000001" y="19.7"><title>2024-04-15 8.7 mins</title></rect><rect fill="#eec0cb" height="4" rx="1" ry="1" width="4" x="91.00000000000001" y="25.1"><title>2024-04-16 14.13 mins</title></rect><rect fill="#efc4ce" height="4" rx="1" ry="1" width="4" x="91.00000000000001" y="30.5"><title>2024-04-17 0.05 mins</title></rect><rect fill="#edbcc8" height="4" rx="1" ry="1" width="4" x="91.00000000000001" y="35.9"><title>2024-04-18 28.47 mins</title></rect><rect fill="#efc4ce" height="4" rx="1" ry="1" width="4" x="91.00000000000001" y="41.300000000000004"><title>2024-04-19 0.35 mins</title></rect><rect fill="#ee8b9c" height="4" rx="1" ry="1" width="4" x="91.00000000000001" y="46.699999999999996"><title>2024-04-20 33.38 mins</title></rect><rect fill="#eec0cb" height="4" rx="1" ry="1" width="4" x="91.00000000000001" y="52.1"><title>2024-04-21 14.92 mins</title></rect><rect fill="#e87e94" height="4" rx="1" ry="1" width="4" x="96.40000000000002" y="19.7"><title>2024-04-22 102.2 mins</title></rect><rect fill="#b0436f" height="4" rx="1" ry="1" width="4" x="96.40000000000002" y="25.1"><title>2024-04-23 260.1 mins</title></rect><rect fill="#b0436f" height="4" rx="1" ry="1" width="4" x="96.40000000000002" y="30.5"><title>2024-04-24 197.2 mins</title></rect><rect fill="#b0436f" height="4" rx="1" ry="1" width="4" x="96.40000000000002" y="35.9"><title>2024-04-25 388.22 mins</title></rect><rect fill="#e97f94" height="4" rx="1" ry="1" width="4" x="96.40000000000002" y="41.300000000000004"><title>2024-04-26 97.0 mins</title></rect><rect fill="#b0436f" height="4" rx="1" ry="1" width="4" x="96.40000000000002" y="46.699999999999996"><title>2024-04-27 215.3 mins</title></rect><rect fill="#efc3cd" height="4" rx="1" ry="1" width="4" x="96.40000000000002" y="52.1"><title>2024-04-28 5.48 mins</title></rect><rect fill="#b0436f" height="4" rx="1" ry="1" width="4" x="101.80000000000003" y="19.7"><title>2024-04-29 312.28 mins</title></rect><rect fill="#b0436f" height="4" rx="1" ry="1" width="4" x="101.80000000000003" y="25.1"><title>2024-04-30 203.87 mins</title></rect><rect fill="#b0436f" height="4" rx="1" ry="1" width="4" x="101.80000000000003" y="30.5"><title>2024-05-01 225.12 mins</title></rect><rect fill="#b0436f" height="4" rx="1" ry="1" width="4" x="101.80000000000003" y="35.9"><title>2024-05-02 183.93 mins</title></rect><rect fill="#b0436f" height="4" rx="1" ry="1" width="4" x="101.80000000000003" y="41.300000000000004"><title>2024-05-03 548.42 mins</title></rect><rect fill="#b0436f" height="4" rx="1" ry="1" width="4" x="101.80000000000003" y="46.699999999999996"><title>2024-05-04 453.3 mins</title></rect><rect fill="#b0436f" height="4" rx="1" ry="1" width="4" x="101.80000000000003" y="52.1"><title>2024-05-05 139.6 mins</title></rect><text fill="#910303" style="font-size:2.5px; font-family:Arial" x="107.20000000000003" y="18.3">May</text><rect fill="#efc3cd" height="4" rx="1" ry="1" width="4" x="107.20000000000003" y="19.7"><title>2024-05-06 3.37 mins</title></rect><rect fill="#eec2cc" height="4" rx="1" ry="1" width="4" x="107.20000000000003" y="25.1"><title>2024-05-07 7.6 mins</title></rect><rect fill="#efc3cd" height="4" rx="1" ry="1" width="4" x="107.20000000000003" y="30.5"><title>2024-05-08 3.62 mins</title></rect><rect fill="#e97e94" height="4" rx="1" ry="1" width="4" x="107.20000000000003" y="35.9"><title>2024-05-09 101.23 mins</title></rect><rect fill="#b0436f" height="4" rx="1" ry="1" width="4" x="107.20000000000003" y="41.300000000000004"><title>2024-05-10 140.33 mins</title></rect><rect fill="#efc3cd" height="4" rx="1" ry="1" width="4" x="107.20000000000003" y="46.699999999999996"><title>2024-05-11 5.45 mins</title></rect><rect fill="#eec2cd" height="4" rx="1" ry="1" width="4" x="107.20000000000003" y="52.1"><title>2024-05-12 6.85 mins</title></rect><rect fill="#efc4ce" height="4" rx="1" ry="1" width="4" x="112.60000000000004" y="19.7"><title>2024-05-13 0.07 mins</title></rect><rect fill="#efc3cd" height="4" rx="1" ry="1" width="4" x="112.60000000000004" y="25.1"><title>2024-05-14 2.47 mins</title></rect><rect fill="#efc3ce" height="4" rx="1" ry="1" width="4" x="112.60000000000004" y="30.5"><title>2024-05-15 2.13 mins</title></rect><rect fill="#efc3cd" height="4" rx="1" ry="1" width="4" x="112.60000000000004" y="35.9"><title>2024-05-16 3.02 mins</title></rect><rect fill="#efc2cd" height="4" rx="1" ry="1" width="4" x="112.60000000000004" y="41.300000000000004"><title>2024-05-17 5.78 mins</title></rect><rect fill="#ec879a" height="4" rx="1" ry="1" width="4" x="112.60000000000004" y="46.699999999999996"><title>2024-05-18 50.5 mins</title></rect><rect fill="#ed899b" height="4" rx="1" ry="1" width="4" x="112.60000000000004" y="52.1"><title>2024-05-19 41.37 mins</title></rect><rect fill="#efc4ce" height="4" rx="1" ry="1" width="4" x="118.00000000000004" y="19.7"><title>2024-05-20 1.12 mins</title></rect><rect fill="#efc3cd" height="4" rx="1" ry="1" width="4" x="118.00000000000004" y="25.1"><title>2024-05-21 5.05 mins</title></rect><rect fill="#efc3cd" height="4" rx="1" ry="1" width="4" x="118.00000000000004" y="30.5"><title>2024-05-22 2.73 mins</title></rect><rect fill="#efc3cd" height="4" rx="1" ry="1" width="4" x="118.00000000000004" y="35.9"><title>2024-05-23 2.85 mins</title></rect><rect fill="#ea8297" height="4" rx="1" ry="1" width="4" x="118.00000000000004" y="41.300000000000004"><title>2024-05-24 77.8 mins</title></rect><rect fill="#b0436f" height="4" rx="1" ry="1" width="4" x="118.00000000000004" y="46.699999999999996"><title>2024-05-25 240.4 mins</title></rect><rect fill="#ed889a" height="4" rx="1" ry="1" width="4" x="118.00000000000004" y="52.1"><title>2024-05-26 45.03 mins</title></rect><rect fill="#b0436f" height="4" rx="1" ry="1" width="4" x="123.40000000000005" y="19.7"><title>2024-05-27 197.58 mins</title></rect><rect fill="#b0436f" height="4" rx="1" ry="1" width="4" x="123.40000000000005" y="25.1"><title>2024-05-28 190.23 mins</title></rect><rect fill="#ec889a" height="4" rx="1" ry="1" width="4" x="123.40000000000005" y="30.5"><title>2024-05-29 50.1 mins</title></rect><rect fill="#b0436f" height="4" rx="1" ry="1" width="4" x="123.40000000000005" y="35.9"><title>2024-05-30 108.27 mins</title></rect><rect fill="#ea8397" height="4" rx="1" ry="1" width="4" x="123.40000000000005" y="41.300000000000004"><title>2024-05-31 76.47 mins</title></rect><rect fill="#eb8397" height="4" rx="1" ry="1" width="4" x="123.40000000000005" y="46.699999999999996"><title>2024-06-01 75.38 mins</title></rect><rect fill="#ea8195" height="4" rx="1" ry="1" width="4" x="123.40000000000005" y="52.1"><title>2024-06-02 88.73 mins</title></rect><text fill="#910303" style="font-size:2.5px; font-family:Arial" x="128.80000000000004" y="18.3">Jun</text><rect fill="#edbfca" height="4" rx="1" ry="1" width="4" x="128.80000000000004" y="19.7"><title>2024-06-03 19.37 mins</title></rect><rect fill="#b0436f" height="4" rx="1" ry="1" width="4" x="128.80000000000004" y="25.1"><title>2024-06-04 153.63 mins</title></rect><rect fill="#b0436f" height="4" rx="1" ry="1" width="4" x="128.80000000000004" y="30.5"><title>2024-06-05 203.45 mins</title></rect><rect fill="#b0436f" height="4" rx="1" ry="1" width="4" x="128.80000000000004" y="35.9"><title>2024-06-06 301.55 mins</title></rect><rect fill="#b0436f" height="4" rx="1" ry="1" width="4" x="128.80000000000004" y="41.300000000000004"><title>2024-06-07 115.97 mins</title></rect><rect fill="#b0436f" height="4" rx="1" ry="1" width="4" x="128.80000000000004" y="46.699999999999996"><title>2024-06-08 135.13 mins</title></rect><rect fill="#b0436f" height="4" rx="1" ry="1" width="4" x="128.80000000000004" y="52.1"><title>2024-06-09 114.63 mins</title></rect><rect fill="#ed899b" height="4" rx="1" ry="1" width="4" x="134.20000000000005" y="19.7"><title>2024-06-10 43.73 mins</title></rect><rect fill="#ec8799" height="4" rx="1" ry="1" width="4" x="134.20000000000005" y="25.1"><title>2024-06-11 55.75 mins</title></rect><rect fill="#eb8498" height="4" rx="1" ry="1" width="4" x="134.20000000000005" y="30.5"><title>2024-06-12 68.53 mins</title></rect><rect fill="#eb8397" height="4" rx="1" ry="1" width="4" x="134.20000000000005" y="35.9"><title>2024-06-13 74.53 mins</title></rect><rect fill="#b0436f" height="4" rx="1" ry="1" width="4" x="134.20000000000005" y="41.300000000000004"><title>2024-06-14 111.55 mins</title></rect><rect fill="#eec2cd" height="4" rx="1" ry="1" width="4" x="134.20000000000005" y="46.699999999999996"><title>2024-06-15 6.05 mins</title></rect><rect fill="#b0436f" height="4" rx="1" ry="1" width="4" x="134.20000000000005" y="52.1"><title>2024-06-16 216.42 mins</title></rect><rect fill="#ec8699" height="4" rx="1" ry="1" width="4" x="139.60000000000005" y="19.7"><title>2024-06-17 60.33 mins</title></rect><rect fill="#e98095" height="4" rx="1" ry="1" width="4" x="139.60000000000005" y="25.1"><title>2024-06-18 92.25 mins</title></rect><rect fill="#ed899a" height="4" rx="1" ry="1" width="4" x="139.60000000000005" y="30.5"><title>2024-06-19 44.78 mins</title></rect><rect fill="#edbdc9" height="4" rx="1" ry="1" width="4" x="139.60000000000005" y="35.9"><title>2024-06-20 25.5 mins</title></rect><rect fill="#efc3cd" height="4" rx="1" ry="1" width="4" x="139.60000000000005" y="41.300000000000004"><title>2024-06-21 5.2 mins</title></rect><rect fill="#efc4ce" height="4" rx="1" ry="1" width="4" x="139.60000000000005" y="46.699999999999996"><title>2024-06-22 0.42 mins</title></rect><rect fill="#b0436f" height="4" rx="1" ry="1" width="4" x="139.60000000000005" y="52.1"><title>2024-06-23 205.62 mins</title></rect><rect fill="#eec0cb" height="4" rx="1" ry="1" width="4" x="145.00000000000006" y="19.7"><title>2024-06-24 13.83 mins</title></rect><rect fill="#ee8a9c" height="4" rx="1" ry="1" width="4" x="145.00000000000006" y="25.1"><title>2024-06-25 34.55 mins</title></rect><rect fill="#b0436f" height="4" rx="1" ry="1" width="4" x="145.00000000000006" y="30.5"><title>2024-06-26 329.18 mins</title></rect><rect fill="#ea8296" height="4" rx="1" ry="1" width="4" x="145.00000000000006" y="35.9"><title>2024-06-27 83.02 mins</title></rect><rect fill="#ea8296" height="4" rx="1" ry="1" width="4" x="145.00000000000006" y="41.300000000000004"><title>2024-06-28 80.05 mins</title></rect><rect fill="#ecbcc7" height="4" rx="1" ry="1" width="4" x="145.00000000000006" y="46.699999999999996"><title>2024-06-29 31.88 mins</title></rect><rect fill="#b0436f" height="4" rx="1" ry="1" width="4" x="145.00000000000006" y="52.1"><title>2024-06-30 207.8 mins</title></rect><text fill="#910303" style="font-size:2.5px; font-family:Arial" x="150.40000000000006" y="18.3">Jul</text><rect fill="#b0436f" height="4" rx="1" ry="1" width="4" x="150.40000000000006" y="19.7"><title>2024-07-01 165.18 mins</title></rect><rect fill="#b0436f" height="4" rx="1" ry="1" width="4" x="150.40000000000006" y="25.1"><title>2024-07-02 262.8 mins</title></rect><rect fill="#b0436f" height="4" rx="1" ry="1" width="4" x="150.40000000000006" y="30.5"><title>2024-07-03 170.47 mins</title></rect><rect fill="#b0436f" height="4" rx="1" ry="1" width="4" x="150.40000000000006" y="35.9"><title>2024-07-04 274.03 mins</title></rect><rect fill="#b0436f" height="4" rx="1" ry="1" width="4" x="150.40000000000006" y="41.300000000000004"><title>2024-07-05 159.98 mins</title></rect><rect fill="#ea8296" height="4" rx="1" ry="1" width="4" x="150.40000000000006" y="46.699999999999996"><title>2024-07-06 77.9 mins</title></rect><rect fill="#b0436f" height="4" rx="1" ry="1" width="4" x="150.40000000000006" y="52.1"><title>2024-07-07 392.38 mins</title></rect><rect fill="#b0436f" height="4" rx="1" ry="1" width="4" x="155.80000000000007" y="19.7"><title>2024-07-08 155.22 mins</title></rect><rect fill="#b0436f" height="4" rx="1" ry="1" width="4" x="155.80000000000007" y="25.1"><title>2024-07-09 118.43 mins</title></rect><rect fill="#efc3cd" height="4" rx="1" ry="1" width="4" x="155.80000000000007" y="30.5"><title>2024-07-10 4.58 mins</title></rect><rect fill="#b0436f" height="4" rx="1" ry="1" width="4" x="155.80000000000007" y="35.9"><title>2024-07-11 201.02 mins</title></rect><rect fill="#b0436f" height="4" rx="1" ry="1" width="4" x="155.80000000000007" y="41.300000000000004"><title>2024-07-12 176.88 mins</title></rect><rect fill="#ea8196" height="4" rx="1" ry="1" width="4" x="155.80000000000007" y="46.699999999999996"><title>2024-07-13 85.6 mins</title></rect><rect fill="#b0436f" height="4" rx="1" ry="1" width="4" x="155.80000000000007" y="52.1"><title>2024-07-14 232.85 mins</title></rect><rect fill="#ed889a" height="4" rx="1" ry="1" width="4" x="161.20000000000007" y="19.7"><title>2024-07-15 45.58 mins</title></rect><rect fill="#edbcc8" height="4" rx="1" ry="1" width="4" x="161.20000000000007" y="25.1"><title>2024-07-16 29.58 mins</title></rect><rect fill="#b0436f" height="4" rx="1" ry="1" width="4" x="161.20000000000007" y="30.5"><title>2024-07-17 270.67 mins</title></rect><rect fill="#ed8a9b" height="4" rx="1" ry="1" width="4" x="161.20000000000007" y="35.9"><title>2024-07-18 37.55 mins</title></rect><rect fill="#eec2cc" height="4" rx="1" ry="1" width="4" x="161.20000000000007" y="41.300000000000004"><title>2024-07-19 9.37 mins</title></rect><rect fill="#b0436f" height="4" rx="1" ry="1" width="4" x="161.20000000000007" y="46.699999999999996"><title>2024-07-20 116.23 mins</title></rect><rect fill="#edbfca" height="4" rx="1" ry="1" width="4" x="161.20000000000007" y="52.1"><title>2024-07-21 19.83 mins</title></rect><rect fill="#eec2cd" height="4" rx="1" ry="1" width="4" x="166.60000000000008" y="19.7"><title>2024-07-22 6.43 mins</title></rect><rect fill="#eec1cc" height="4" rx="1" ry="1" width="4" x="166.60000000000008" y="25.1"><title>2024-07-23 11.73 mins</title></rect><rect fill="#b0436f" height="4" rx="1" ry="1" width="4" x="166.60000000000008" y="30.5"><title>2024-07-24 247.32 mins</title></rect><rect fill="#ea8296" height="4" rx="1" ry="1" width="4" x="166.60000000000008" y="35.9"><title>2024-07-25 80.8 mins</title></rect><rect fill="#ed8a9b" height="4" rx="1" ry="1" width="4" x="166.60000000000008" y="41.300000000000004"><title>2024-07-26 38.82 mins</title></rect><rect fill="#ea8296" height="4" rx="1" ry="1" width="4" x="166.60000000000008" y="46.699999999999996"><title>2024-07-27 82.57 mins</title></rect><rect fill="#efc4ce" height="4" rx="1" ry="1" width="4" x="166.60000000000008" y="52.1"><title>2024-07-28 0.08 mins</title></rect><rect fill="#b0436f" height="4" rx="1" ry="1" width="4" x="172.00000000000009" y="19.7"><title>2024-07-29 218.72 mins</title></rect><rect fill="#efc3cd" height="4" rx="1" ry="1" width="4" x="172.00000000000009" y="25.1"><title>2024-07-30 3.13 mins</title></rect><rect fill="#eec1cc" height="4" rx="1" ry="1" width="4" x="172.00000000000009" y="30.5"><title>2024-07-31 10.35 mins</title></rect><rect fill="#ec8799" height="4" rx="1" ry="1" width="4" x="172.00000000000009" y="35.9"><title>2024-08-01 55.05 mins</title></rect><rect fill="#eec1cc" height="4" rx="1" ry="1" width="4" x="172.00000000000009" y="41.300000000000004"><title>2024-08-02 11.58 mins</title></rect><rect fill="#efc4ce" height="4" rx="1" ry="1" width="4" x="172.00000000000009" y="46.699999999999996"><title>2024-08-03 0.72 mins</title></rect><rect fill="#b0436f" height="4" rx="1" ry="1" width="4" x="172.00000000000009" y="52.1"><title>2024-08-04 112.6 mins</title></rect><text fill="#910303" style="font-size:2.5px; font-family:Arial" x="177.4000000000001" y="18.3">Aug</text><rect fill="#b0436f" height="4" rx="1" ry="1" width="4" x="177.4000000000001" y="19.7"><title>2024-08-05 198.83 mins</title></rect><rect fill="#efc4ce" height="4" rx="1" ry="1" width="4" x="177.4000000000001" y="25.1"><title>2024-08-06 0.3 mins</title></rect><rect fill="#b0436f" height="4" rx="1" ry="1" width="4" x="177.4000000000001" y="30.5"><title>2024-08-07 217.73 mins</title></rect><rect fill="#b0436f" height="4" rx="1" ry="1" width="4" x="177.4000000000001" y="35.9"><title>2024-08-08 387.78 mins</title></rect><rect fill="#efc4ce" height="4" rx="1" ry="1" width="4" x="177.4000000000001" y="41.300000000000004"><title>2024-08-09 1.6 mins</title></rect><rect fill="#ed889a" height="4" rx="1" ry="1" width="4" x="177.4000000000001" y="46.699999999999996"><title>2024-08-10 46.05 mins</title></rect><rect fill="#efc4ce" height="4" rx="1" ry="1" width="4" x="177.4000000000001" y="52.1"><title>2024-08-11 0.2 mins</title></rect><rect fill="#ec8699" height="4" rx="1" ry="1" width="4" x="182.8000000000001" y="19.7"><title>2024-08-12 57.73 mins</title></rect><rect fill="#ed899b" height="4" rx="1" ry="1" width="4" x="182.8000000000001" y="25.1"><title>2024-08-13 40.05 mins</title></rect><rect fill="#ed889a" height="4" rx="1" ry="1" width="4" x="182.8000000000001" y="30.5"><title>2024-08-14 49.83 mins</title></rect><rect fill="#efc3cd" height="4" rx="1" ry="1" width="4" x="182.8000000000001" y="35.9"><title>2024-08-15 2.48 mins</title></rect><rect fill="#ec8699" height="4" rx="1" ry="1" width="4" x="182.8000000000001" y="41.300000000000004"><title>2024-08-16 59.58 mins</title></rect><rect fill="#b0436f" height="4" rx="1" ry="1" width="4" x="182.8000000000001" y="46.699999999999996"><title>2024-08-17 122.48 mins</title></rect><rect fill="#b0436f" height="4" rx="1" ry="1" width="4" x="182.8000000000001" y="52.1"><title>2024-08-18 363.45 mins</title></rect><rect fill="#b0436f" height="4" rx="1" ry="1" width="4" x="188.2000000000001" y="19.7"><title>2024-08-19 152.88 mins</title></rect><rect fill="#eee8d5" height="4" rx="1" ry="1" width="4" x="188.2000000000001" y="25.1"><title>2024-08-20</title></rect><rect fill="#eee8d5" height="4" rx="1" ry="1" width="4" x="188.2000000000001" y="30.5"><title>2024-08-21</title></rect><rect fill="#eee8d5" height="4" rx="1" ry="1" width="4" x="188.2000000000001" y="35.9"><title>2024-08-22</title></rect><rect fill="#eee8d5" height="4" rx="1" ry="1" width="4" x="188.2000000000001" y="41.300000000000004"><title>2024-08-23</title></rect><rect fill="#eee8d5" height="4" rx="1" ry="1" width="4" x="188.2000000000001" y="46.699999999999996"><title>2024-08-24</title></rect><rect fill="#eee8d5" height="4" rx="1" ry="1" width="4" x="188.2000000000001" y="52.1"><title>2024-08-25</title></rect><rect fill="#eee8d5" height="4" rx="1" ry="1" width="4" x="193.6000000000001" y="19.7"><title>2024-08-26</title></rect><rect fill="#eee8d5" height="4" rx="1" ry="1" width="4" x="193.6000000000001" y="25.1"><title>2024-08-27</title></rect><rect fill="#eee8d5" height="4" rx="1" ry="1" width="4" x="193.6000000000001" y="30.5"><title>2024-08-28</title></rect><rect fill="#eee8d5" height="4" rx="1" ry="1" width="4" x="193.6000000000001" y="35.9"><title>2024-08-29</title></rect><rect fill="#eee8d5" height="4" rx="1" ry="1" width="4" x="193.6000000000001" y="41.300000000000004"><title>2024-08-30</title></rect><rect fill="#eee8d5" height="4" rx="1" ry="1" width="4" x="193.6000000000001" y="46.699999999999996"><title>2024-08-31</title></rect><rect fill="#eee8d5" height="4" rx="1" ry="1" width="4" x="193.6000000000001" y="52.1"><title>2024-09-01</title></rect><text fill="#910303" style="font-size:2.5px; font-family:Arial" x="199.0000000000001" y="18.3">Sep</text><rect fill="#eee8d5" height="4" rx="1" ry="1" width="4" x="199.0000000000001" y="19.7"><title>2024-09-02</title></rect><rect fill="#eee8d5" height="4" rx="1" ry="1" width="4" x="199.0000000000001" y="25.1"><title>2024-09-03</title></rect><rect fill="#eee8d5" height="4" rx="1" ry="1" width="4" x="199.0000000000001" y="30.5"><title>2024-09-04</title></rect><rect fill="#eee8d5" height="4" rx="1" ry="1" width="4" x="199.0000000000001" y="35.9"><title>2024-09-05</title></rect><rect fill="#eee8d5" height="4" rx="1" ry="1" width="4" x="199.0000000000001" y="41.300000000000004"><title>2024-09-06</title></rect><rect fill="#eee8d5" height="4" rx="1" ry="1" width="4" x="199.0000000000001" y="46.699999999999996"><title>2024-09-07</title></rect><rect fill="#eee8d5" height="4" rx="1" ry="1" width="4" x="199.0000000000001" y="52.1"><title>2024-09-08</title></rect><rect fill="#eee8d5" height="4" rx="1" ry="1" width="4" x="204.40000000000012" y="19.7"><title>2024-09-09</title></rect><rect fill="#eee8d5" height="4" rx="1" ry="1" width="4" x="204.40000000000012" y="25.1"><title>2024-09-10</title></rect><rect fill="#eee8d5" height="4" rx="1" ry="1" width="4" x="204.40000000000012" y="30.5"><title>2024-09-11</title></rect><rect fill="#eee8d5" height="4" rx="1" ry="1" width="4" x="204.40000000000012" y="35.9"><title>2024-09-12</title></rect><rect fill="#eee8d5" height="4" rx="1" ry="1" width="4" x="204.40000000000012" y="41.300000000000004"><title>2024-09-13</title></rect><rect fill="#eee8d5" height="4" rx="1" ry="1" width="4" x="204.40000000000012" y="46.699999999999996"><title>2024-09-14</title></rect><rect fill="#eee8d5" height="4" rx="1" ry="1" width="4" x="204.40000000000012" y="52.1"><title>2024-09-15</title></rect><rect fill="#eee8d5" height="4" rx="1" ry="1" width="4" x="209.80000000000013" y="19.7"><title>2024-09-16</title></rect><rect fill="#eee8d5" height="4" rx="1" ry="1" width="4" x="209.80000000000013" y="25.1"><title>2024-09-17</title></rect><rect fill="#eee8d5" height="4" rx="1" ry="1" width="4" x="209.80000000000013" y="30.5"><title>2024-09-18</title></rect><rect fill="#eee8d5" height="4" rx="1" ry="1" width="4" x="209.80000000000013" y="35.9"><title>2024-09-19</title></rect><rect fill="#eee8d5" height="4" rx="1" ry="1" width="4" x="209.80000000000013" y="41.300000000000004"><title>2024-09-20</title></rect><rect fill="#eee8d5" height="4" rx="1" ry="1" width="4" x="209.80000000000013" y="46.699999999999996"><title>2024-09-21</title></rect><rect fill="#eee8d5" height="4" rx="1" ry="1" width="4" x="209.80000000000013" y="52.1"><title>2024-09-22</title></rect><rect fill="#eee8d5" height="4" rx="1" ry="1" width="4" x="215.20000000000013" y="19.7"><title>2024-09-23</title></rect><rect fill="#eee8d5" height="4" rx="1" ry="1" width="4" x="215.20000000000013" y="25.1"><title>2024-09-24</title></rect><rect fill="#eee8d5" height="4" rx="1" ry="1" width="4" x="215.20000000000013" y="30.5"><title>2024-09-25</title></rect><rect fill="#eee8d5" height="4" rx="1" ry="1" width="4" x="215.20000000000013" y="35.9"><title>2024-09-26</title></rect><rect fill="#eee8d5" height="4" rx="1" ry="1" width="4" x="215.20000000000013" y="41.300000000000004"><title>2024-09-27</title></rect><rect fill="#eee8d5" height="4" rx="1" ry="1" width="4" x="215.20000000000013" y="46.699999999999996"><title>2024-09-28</title></rect><rect fill="#eee8d5" height="4" rx="1" ry="1" width="4" x="215.20000000000013" y="52.1"><title>2024-09-29</title></rect><rect fill="#eee8d5" height="4" rx="1" ry="1" width="4" x="220.60000000000014" y="19.7"><title>2024-09-30</title></rect><rect fill="#eee8d5" height="4" rx="1" ry="1" width="4" x="220.60000000000014" y="25.1"><title>2024-10-01</title></rect><rect fill="#eee8d5" height="4" rx="1" ry="1" width="4" x="220.60000000000014" y="30.5"><title>2024-10-02</title></rect><rect fill="#eee8d5" height="4" rx="1" ry="1" width="4" x="220.60000000000014" y="35.9"><title>2024-10-03</title></rect><rect fill="#eee8d5" height="4" rx="1" ry="1" width="4" x="220.60000000000014" y="41.300000000000004"><title>2024-10-04</title></rect><rect fill="#eee8d5" height="4" rx="1" ry="1" width="4" x="220.60000000000014" y="46.699999999999996"><title>2024-10-05</title></rect><rect fill="#eee8d5" height="4" rx="1" ry="1" width="4" x="220.60000000000014" y="52.1"><title>2024-10-06</title></rect><text fill="#910303" style="font-size:2.5px; font-family:Arial" x="226.00000000000014" y="18.3">Oct</text><rect fill="#eee8d5" height="4" rx="1" ry="1" width="4" x="226.00000000000014" y="19.7"><title>2024-10-07</title></rect><rect fill="#eee8d5" height="4" rx="1" ry="1" width="4" x="226.00000000000014" y="25.1"><title>2024-10-08</title></rect><rect fill="#eee8d5" height="4" rx="1" ry="1" width="4" x="226.00000000000014" y="30.5"><title>2024-10-09</title></rect><rect fill="#eee8d5" height="4" rx="1" ry="1" width="4" x="226.00000000000014" y="35.9"><title>2024-10-10</title></rect><rect fill="#eee8d5" height="4" rx="1" ry="1" width="4" x="226.00000000000014" y="41.300000000000004"><title>2024-10-11</title></rect><rect fill="#eee8d5" height="4" rx="1" ry="1" width="4" x="226.00000000000014" y="46.699999999999996"><title>2024-10-12</title></rect><rect fill="#eee8d5" height="4" rx="1" ry="1" width="4" x="226.00000000000014" y="52.1"><title>2024-10-13</title></rect><rect fill="#eee8d5" height="4" rx="1" ry="1" width="4" x="231.40000000000015" y="19.7"><title>2024-10-14</title></rect><rect fill="#eee8d5" height="4" rx="1" ry="1" width="4" x="231.40000000000015" y="25.1"><title>2024-10-15</title></rect><rect fill="#eee8d5" height="4" rx="1" ry="1" width="4" x="231.40000000000015" y="30.5"><title>2024-10-16</title></rect><rect fill="#eee8d5" height="4" rx="1" ry="1" width="4" x="231.40000000000015" y="35.9"><title>2024-10-17</title></rect><rect fill="#eee8d5" height="4" rx="1" ry="1" width="4" x="231.40000000000015" y="41.300000000000004"><title>2024-10-18</title></rect><rect fill="#eee8d5" height="4" rx="1" ry="1" width="4" x="231.40000000000015" y="46.699999999999996"><title>2024-10-19</title></rect><rect fill="#eee8d5" height="4" rx="1" ry="1" width="4" x="231.40000000000015" y="52.1"><title>2024-10-20</title></rect><rect fill="#eee8d5" height="4" rx="1" ry="1" width="4" x="236.80000000000015" y="19.7"><title>2024-10-21</title></rect><rect fill="#eee8d5" height="4" rx="1" ry="1" width="4" x="236.80000000000015" y="25.1"><title>2024-10-22</title></rect><rect fill="#eee8d5" height="4" rx="1" ry="1" width="4" x="236.80000000000015" y="30.5"><title>2024-10-23</title></rect><rect fill="#eee8d5" height="4" rx="1" ry="1" width="4" x="236.80000000000015" y="35.9"><title>2024-10-24</title></rect><rect fill="#eee8d5" height="4" rx="1" ry="1" width="4" x="236.80000000000015" y="41.300000000000004"><title>2024-10-25</title></rect><rect fill="#eee8d5" height="4" rx="1" ry="1" width="4" x="236.80000000000015" y="46.699999999999996"><title>2024-10-26</title></rect><rect fill="#eee8d5" height="4" rx="1" ry="1" width="4" x="236.80000000000015" y="52.1"><title>2024-10-27</title></rect><rect fill="#eee8d5" height="4" rx="1" ry="1" width="4" x="242.20000000000016" y="19.7"><title>2024-10-28</title></rect><rect fill="#eee8d5" height="4" rx="1" ry="1" width="4" x="242.20000000000016" y="25.1"><title>2024-10-29</title></rect><rect fill="#eee8d5" height="4" rx="1" ry="1" width="4" x="242.20000000000016" y="30.5"><title>2024-10-30</title></rect><rect fill="#eee8d5" height="4" rx="1" ry="1" width="4" x="242.20000000000016" y="35.9"><title>2024-10-31</title></rect><rect fill="#eee8d5" height="4" rx="1" ry="1" width="4" x="242.20000000000016" y="41.300000000000004"><title>2024-11-01</title></rect><rect fill="#eee8d5" height="4" rx="1" ry="1" width="4" x="242.20000000000016" y="46.699999999999996"><title>2024-11-02</title></rect><rect fill="#eee8d5" height="4" rx="1" ry="1" width="4" x="242.20000000000016" y="52.1"><title>2024-11-03</title></rect><text fill="#910303" style="font-size:2.5px; font-family:Arial" x="247.60000000000016" y="18.3">Nov</text><rect fill="#eee8d5" height="4" rx="1" ry="1" width="4" x="247.60000000000016" y="19.7"><title>2024-11-04</title></rect><rect fill="#eee8d5" height="4" rx="1" ry="1" width="4" x="247.60000000000016" y="25.1"><title>2024-11-05</title></rect><rect fill="#eee8d5" height="4" rx="1" ry="1" width="4" x="247.60000000000016" y="30.5"><title>2024-11-06</title></rect><rect fill="#eee8d5" height="4" rx="1" ry="1" width="4" x="247.60000000000016" y="35.9"><title>2024-11-07</title></rect><rect fill="#eee8d5" height="4" rx="1" ry="1" width="4" x="247.60000000000016" y="41.300000000000004"><title>2024-11-08</title></rect><rect fill="#eee8d5" height="4" rx="1" ry="1" width="4" x="247.60000000000016" y="46.699999999999996"><title>2024-11-09</title></rect><rect fill="#eee8d5" height="4" rx="1" ry="1" width="4" x="247.60000000000016" y="52.1"><title>2024-11-10</title></rect><rect fill="#eee8d5" height="4" rx="1" ry="1" width="4" x="253.00000000000017" y="19.7"><title>2024-11-11</title></rect><rect fill="#eee8d5" height="4" rx="1" ry="1" width="4" x="253.00000000000017" y="25.1"><title>2024-11-12</title></rect><rect fill="#eee8d5" height="4" rx="1" ry="1" width="4" x="253.00000000000017" y="30.5"><title>2024-11-13</title></rect><rect fill="#eee8d5" height="4" rx="1" ry="1" width="4" x="253.00000000000017" y="35.9"><title>2024-11-14</title></rect><rect fill="#eee8d5" height="4" rx="1" ry="1" width="4" x="253.00000000000017" y="41.300000000000004"><title>2024-11-15</title></rect><rect fill="#eee8d5" height="4" rx="1" ry="1" width="4" x="253.00000000000017" y="46.699999999999996"><title>2024-11-16</title></rect><rect fill="#eee8d5" height="4" rx="1" ry="1" width="4" x="253.00000000000017" y="52.1"><title>2024-11-17</title></rect><rect fill="#eee8d5" height="4" rx="1" ry="1" width="4" x="258.40000000000015" y="19.7"><title>2024-11-18</title></rect><rect fill="#eee8d5" height="4" rx="1" ry="1" width="4" x="258.40000000000015" y="25.1"><title>2024-11-19</title></rect><rect fill="#eee8d5" height="4" rx="1" ry="1" width="4" x="258.40000000000015" y="30.5"><title>2024-11-20</title></rect><rect fill="#eee8d5" height="4" rx="1" ry="1" width="4" x="258.40000000000015" y="35.9"><title>2024-11-21</title></rect><rect fill="#eee8d5" height="4" rx="1" ry="1" width="4" x="258.40000000000015" y="41.300000000000004"><title>2024-11-22</title></rect><rect fill="#eee8d5" height="4" rx="1" ry="1" width="4" x="258.40000000000015" y="46.699999999999996"><title>2024-11-23</title></rect><rect fill="#eee8d5" height="4" rx="1" ry="1" width="4" x="258.40000000000015" y="52.1"><title>2024-11-24</title></rect><rect fill="#eee8d5" height="4" rx="1" ry="1" width="4" x="263.8000000000001" y="19.7"><title>2024-11-25</title></rect><rect fill="#eee8d5" height="4" rx="1" ry="1" width="4" x="263.8000000000001" y="25.1"><title>2024-11-26</title></rect><rect fill="#eee8d5" height="4" rx="1" ry="1" width="4" x="263.8000000000001" y="30.5"><title>2024-11-27</title></rect><rect fill="#eee8d5" height="4" rx="1" ry="1" width="4" x="263.8000000000001" y="35.9"><title>2024-11-28</title></rect><rect fill="#eee8d5" height="4" rx="1" ry="1" width="4" x="263.8000000000001" y="41.300000000000004"><title>2024-11-29</title></rect><rect fill="#eee8d5" height="4" rx="1" ry="1" width="4" x="263.8000000000001" y="46.699999999999996"><title>2024-11-30</title></rect><rect fill="#eee8d5" height="4" rx="1" ry="1" width="4" x="263.8000000000001" y="52.1"><title>2024-12-01</title></rect><text fill="#910303" style="font-size:2.5px; font-family:Arial" x="269.2000000000001" y="18.3">Dec</text><rect fill="#eee8d5" height="4" rx="1" ry="1" width="4" x="269.2000000000001" y="19.7"><title>2024-12-02</title></rect><rect fill="#eee8d5" height="4" rx="1" ry="1" width="4" x="269.2000000000001" y="25.1"><title>2024-12-03</title></rect><rect fill="#eee8d5" height="4" rx="1" ry="1" width="4" x="269.2000000000001" y="30.5"><title>2024-12-04</title></rect><rect fill="#eee8d5" height="4" rx="1" ry="1" width="4" x="269.2000000000001" y="35.9"><title>2024-12-05</title></rect><rect fill="#eee8d5" height="4" rx="1" ry="1" width="4" x="269.2000000000001" y="41.300000000000004"><title>2024-12-06</title></rect><rect fill="#eee8d5" height="4" rx="1" ry="1" width="4" x="269.2000000000001" y="46.699999999999996"><title>2024-12-07</title></rect><rect fill="#eee8d5" height="4" rx="1" ry="1" width="4" x="269.2000000000001" y="52.1"><title>2024-12-08</title></rect><rect fill="#eee8d5" height="4" rx="1" ry="1" width="4" x="274.6000000000001" y="19.7"><title>2024-12-09</title></rect><rect fill="#eee8d5" height="4" rx="1" ry="1" width="4" x="274.6000000000001" y="25.1"><title>2024-12-10</title></rect><rect fill="#eee8d5" height="4" rx="1" ry="1" width="4" x="274.6000000000001" y="30.5"><title>2024-12-11</title></rect><rect fill="#eee8d5" height="4" rx="1" ry="1" width="4" x="274.6000000000001" y="35.9"><title>2024-12-12</title></rect><rect fill="#eee8d5" height="4" rx="1" ry="1" width="4" x="274.6000000000001" y="41.300000000000004"><title>2024-12-13</title></rect><rect fill="#eee8d5" height="4" rx="1" ry="1" width="4" x="274.6000000000001" y="46.699999999999996"><title>2024-12-14</title></rect><rect fill="#eee8d5" height="4" rx="1" ry="1" width="4" x="274.6000000000001" y="52.1"><title>2024-12-15</title></rect><rect fill="#eee8d5" height="4" rx="1" ry="1" width="4" x="280.00000000000006" y="19.7"><title>2024-12-16</title></rect><rect fill="#eee8d5" height="4" rx="1" ry="1" width="4" x="280.00000000000006" y="25.1"><title>2024-12-17</title></rect><rect fill="#eee8d5" height="4" rx="1" ry="1" width="4" x="280.00000000000006" y="30.5"><title>2024-12-18</title></rect><rect fill="#eee8d5" height="4" rx="1" ry="1" width="4" x="280.00000000000006" y="35.9"><title>2024-12-19</title></rect><rect fill="#eee8d5" height="4" rx="1" ry="1" width="4" x="280.00000000000006" y="41.300000000000004"><title>2024-12-20</title></rect><rect fill="#eee8d5" height="4" rx="1" ry="1" width="4" x="280.00000000000006" y="46.699999999999996"><title>2024-12-21</title></rect><rect fill="#eee8d5" height="4" rx="1" ry="1" width="4" x="280.00000000000006" y="52.1"><title>2024-12-22</title></rect><rect fill="#eee8d5" height="4" rx="1" ry="1" width="4" x="285.40000000000003" y="19.7"><title>2024-12-23</title></rect><rect fill="#eee8d5" height="4" rx="1" ry="1" width="4" x="285.40000000000003" y="25.1"><title>2024-12-24</title></rect><rect fill="#eee8d5" height="4" rx="1" ry="1" width="4" x="285.40000000000003" y="30.5"><title>2024-12-25</title></rect><rect fill="#eee8d5" height="4" rx="1" ry="1" width="4" x="285.40000000000003" y="35.9"><title>2024-12-26</title></rect><rect fill="#eee8d5" height="4" rx="1" ry="1" width="4" x="285.40000000000003" y="41.300000000000004"><title>2024-12-27</title></rect><rect fill="#eee8d5" height="4" rx="1" ry="1" width="4" x="285.40000000000003" y="46.699999999999996"><title>2024-12-28</title></rect><rect fill="#eee8d5" height="4" rx="1" ry="1" width="4" x="285.40000000000003" y="52.1"><title>2024-12-29</title></rect><rect fill="#eee8d5" height="4" rx="1" ry="1" width="4" x="290.8" y="19.7"><title>2024-12-30</title></rect><rect fill="#eee8d5" height="4" rx="1" ry="1" width="4" x="290.8" y="25.1"><title>2024-12-31</title></rect></svg>